<?xml version="1.0" encoding="UTF-8"?>
<svg version="1.1" xmlns="http://www.w3.org/2000/svg" width="64" height="64">
<path d="M0 0 C0.495 2.97 0.495 2.97 1 6 C-1.97 7.32 -4.94 8.64 -8 10 C-6.70629655 13.5778986 -5.03586129 16.75128722 -3.08007812 20.01123047 C2.10066216 28.65126252 5.73068321 36.802855 3.5703125 47.03515625 C1.53155915 53.56671792 -2.51154638 58.10611254 -8.50390625 61.359375 C-13.03185863 63.32981031 -16.13458388 64.61067806 -21 63 C-22.3125 60.4375 -22.3125 60.4375 -23 58 C-22.34773438 57.82984375 -21.69546875 57.6596875 -21.0234375 57.484375 C-14.70732649 55.73300499 -9.64934504 53.91427954 -5.125 48.9375 C-2.88158398 43.07969149 -3.15601709 37.07479133 -5.5 31.3125 C-5.995 30.549375 -6.49 29.78625 -7 29 C-8.051875 29.474375 -9.10375 29.94875 -10.1875 30.4375 C-17.76441867 33.85454175 -26.50038214 33.69012646 -34.40234375 31.26171875 C-36.3125 30.4375 -36.3125 30.4375 -39 29 C-41.09271214 33.50143659 -41.09271214 33.50143659 -42.375 38.25 C-43.37328563 41.04519976 -45.43006225 41.74637183 -48 43 C-48.66 43 -49.32 43 -50 43 C-49.4657649 30.44547521 -44.69793905 20.87801945 -37 11 C-32.74735649 7.31920817 -29.34284465 6.87803393 -23.8125 6.9375 C-22.18248047 6.95103516 -22.18248047 6.95103516 -20.51953125 6.96484375 C-19.68808594 6.97644531 -18.85664062 6.98804688 -18 7 C-19 9.875 -19 9.875 -21 13 C-23.68906013 14.14563509 -26.08196704 14.52163394 -29 15 C-25.49698158 15.62306652 -22.4739044 15.86586806 -19 15 C-16.98024428 12.6450883 -15.75466826 10.25934974 -14.37109375 7.48828125 C-11.31749699 1.94656861 -6.18287572 0 0 0 Z M-35 20 C-35 21.32 -35 22.64 -35 24 C-28.79971311 26.75568306 -21.20199129 27.21766247 -14.66796875 25.32421875 C-12.5757779 24.46047645 -12.5757779 24.46047645 -10 23 C-10 22.01 -10 21.02 -10 20 C-11.11375 20.33 -12.2275 20.66 -13.375 21 C-20.83945031 22.84959831 -27.76621464 22.51609925 -35 20 Z " fill="#FFFFFF" transform="translate(54,0)"/>
</svg>
